<svg width="400" height="400" viewBox="0 0 400 400" fill="none" xmlns="http://www.w3.org/2000/svg">
<path d="M74.3587 283.667C67.5318 283.667 61.7653 281.314 57.0592 276.608C52.3531 271.901 50 266.099 50 259.202V141.465C50 134.567 52.3531 128.765 57.0592 124.059C61.7653 119.353 67.5318 117 74.3587 117H325.641C332.468 117 338.235 119.353 342.941 124.059C347.647 128.765 350 134.567 350 141.465V259.202C350 266.099 347.647 271.901 342.941 276.608C338.235 281.314 332.468 283.667 325.641 283.667H74.3587ZM74.3587 269.564H325.641C328.205 269.564 330.556 268.496 332.692 266.359C334.829 264.223 335.897 261.872 335.897 259.308V141.359C335.897 138.795 334.829 136.444 332.692 134.308C330.556 132.171 328.205 131.103 325.641 131.103H74.3587C71.7946 131.103 69.4442 132.171 67.3075 134.308C65.1708 136.444 64.1025 138.795 64.1025 141.359V259.308C64.1025 261.872 65.1708 264.223 67.3075 266.359C69.4442 268.496 71.7946 269.564 74.3587 269.564ZM126.282 207.385V236.701C126.282 238.699 126.964 240.374 128.327 241.725C129.691 243.076 131.381 243.752 133.397 243.752C135.413 243.752 137.082 243.076 138.403 241.725C139.724 240.374 140.385 238.699 140.385 236.701V207.385H169.701C171.699 207.385 173.374 206.703 174.725 205.339C176.076 203.975 176.752 202.285 176.752 200.27C176.752 198.254 176.076 196.585 174.725 195.264C173.374 193.943 171.699 193.282 169.701 193.282H140.385V163.966C140.385 161.968 139.703 160.293 138.339 158.942C136.975 157.59 135.285 156.915 133.27 156.915C131.254 156.915 129.585 157.59 128.264 158.942C126.943 160.293 126.282 161.968 126.282 163.966V193.282H96.9658C94.9678 193.282 93.2931 193.964 91.9417 195.328C90.5903 196.691 89.9146 198.381 89.9146 200.397C89.9146 202.413 90.5903 204.082 91.9417 205.403C93.2931 206.724 94.9678 207.385 96.9658 207.385H126.282ZM243.317 241.53C247.352 241.53 250.807 240.106 253.68 237.257C256.555 234.408 257.992 230.931 257.992 226.824C257.992 222.718 256.567 219.228 253.718 216.354C250.869 213.48 247.428 212.043 243.393 212.043C239.358 212.043 235.867 213.467 232.922 216.316C229.977 219.165 228.504 222.642 228.504 226.749C228.504 230.855 229.979 234.345 232.929 237.219C235.878 240.093 239.341 241.53 243.317 241.53ZM289.471 188.56C293.506 188.56 296.96 187.135 299.834 184.287C302.708 181.438 304.145 177.96 304.145 173.854C304.145 169.748 302.721 166.258 299.872 163.383C297.023 160.509 293.581 159.073 289.546 159.073C285.511 159.073 282.021 160.497 279.076 163.346C276.131 166.195 274.658 169.672 274.658 173.778C274.658 177.885 276.133 181.375 279.082 184.249C282.032 187.123 285.495 188.56 289.471 188.56Z" fill="white"/>
</svg>
